<?xml version="1.0" encoding="utf-8"?>
<!-- Generator: Adobe Illustrator 14.0.0, SVG Export Plug-In . SVG Version: 6.00 Build 43363)  -->
<!DOCTYPE svg PUBLIC "-//W3C//DTD SVG 1.1//EN" "http://www.w3.org/Graphics/SVG/1.1/DTD/svg11.dtd">
<svg version="1.1" id="Layer_1" xmlns="http://www.w3.org/2000/svg" xmlns:xlink="http://www.w3.org/1999/xlink" x="0px" y="0px"
	 width="500px" height="500px" viewBox="0 0 500 500" enable-background="new 0 0 500 500" xml:space="preserve">
<circle fill-rule="evenodd" clip-rule="evenodd" fill="#532C66" stroke="#FFFFFF" stroke-width="10" cx="249.687" cy="249.164" r="248.804"/>
<g>
	<g>
		<path fill-rule="evenodd" clip-rule="evenodd" fill="#FFFFFF" d="M136.417,381.871c-12.923-12.923-22.046-21.285-28.127-26.605
			c-6.082-5.321-13.683-0.381-17.104,9.121c-3.421,9.503-10.263,20.905,4.181,35.729c0,0,13.303,19.386,35.729,7.983
			C153.521,396.696,149.34,394.795,136.417,381.871z M394.112,163.398c-14.824-14.253-31.93-29.647-31.93-29.647l-37.631-39.339
			c0,0-8.551-11.688-33.924,5.131c-25.371,16.819-15.393,24.517-9.121,32.499c6.271,7.983,86.661,102.911,86.661,102.911
			s17.961,20.812,25.944-13.683C402.092,186.775,408.936,177.653,394.112,163.398z M399.337,97.832c0,0-13.304-19.384-35.729-7.981
			c-22.424,11.403-18.243,13.303-5.321,26.226c12.924,12.924,22.044,21.286,28.126,26.607c6.085,5.322,13.686,0.38,17.105-9.122
			C406.938,124.059,413.781,112.656,399.337,97.832z M128.743,263.175c0,0-17.96-20.81-25.941,13.684
			c-7.981,34.493-14.824,43.616,0,57.87c14.823,14.253,31.928,29.647,31.928,29.647l37.629,39.34c0,0,8.553,11.688,33.924-5.131
			c25.372-16.82,15.395-24.517,9.123-32.499S128.743,263.175,128.743,263.175z M310.004,180.499l0.693,0.803
			C310.697,181.302,309.127,179.646,310.004,180.499l-12.305-14.25c0,0-5.701-8.438-23.718,5.702
			c-18.016,14.14-53.366,50.857-53.366,50.857l-48.348,50.401c0,0-12.315,14.596-0.913,27.367
			c11.403,12.771,24.859,25.999,24.859,25.999s8.21,14.824,36.716-13.229c28.507-28.051,40.138-37.401,40.138-37.401l52.683-57.242
			c0,0,11.252-10.642-4.715-26.987C313.513,184.013,310.786,181.26,310.004,180.499z"/>
	</g>
	<g>
		<path fill="none" stroke="#B77EE0" stroke-width="5" d="M136.417,381.871c-12.923-12.923-22.046-21.285-28.127-26.605
			c-6.082-5.321-13.683-0.381-17.104,9.121c-3.421,9.503-10.263,20.905,4.181,35.729c0,0,13.303,19.386,35.729,7.983
			C153.521,396.696,149.34,394.795,136.417,381.871z M394.112,163.398c-14.824-14.253-31.93-29.647-31.93-29.647l-37.631-39.339
			c0,0-8.551-11.688-33.924,5.131c-25.371,16.819-15.393,24.517-9.121,32.499c6.271,7.983,86.661,102.911,86.661,102.911
			s17.961,20.812,25.944-13.683C402.092,186.775,408.936,177.653,394.112,163.398z M399.337,97.832c0,0-13.304-19.384-35.729-7.981
			c-22.424,11.403-18.243,13.303-5.321,26.226c12.924,12.924,22.044,21.286,28.126,26.607c6.085,5.322,13.686,0.38,17.105-9.122
			C406.938,124.059,413.781,112.656,399.337,97.832z M128.743,263.175c0,0-17.96-20.81-25.941,13.684
			c-7.981,34.493-14.824,43.616,0,57.87c14.823,14.253,31.928,29.647,31.928,29.647l37.629,39.34c0,0,8.553,11.688,33.924-5.131
			c25.372-16.82,15.395-24.517,9.123-32.499S128.743,263.175,128.743,263.175z M310.004,180.499l0.693,0.803
			C310.697,181.302,309.127,179.646,310.004,180.499l-12.305-14.25c0,0-5.701-8.438-23.718,5.702
			c-18.016,14.14-53.366,50.857-53.366,50.857l-48.348,50.401c0,0-12.315,14.596-0.913,27.367
			c11.403,12.771,24.859,25.999,24.859,25.999s8.21,14.824,36.716-13.229c28.507-28.051,40.138-37.401,40.138-37.401l52.683-57.242
			c0,0,11.252-10.642-4.715-26.987C313.513,184.013,310.786,181.26,310.004,180.499z"/>
	</g>
</g>
</svg>
